<svg xmlns="http://www.w3.org/2000/svg" width="200" height="1020">
<text x="0" y="20">task 1.1: </text><text x="90" y="20" fill="#00CF00">960075</text><text></text>
<text x="0" y="50">task 1.2: </text><text x="90" y="50" fill="#00CF00">212900130</text><text></text>
<text x="0" y="80">task 2.1: </text><text x="90" y="80" fill="#00CF00">564</text><text></text>
<text x="0" y="110">task 2.2: </text><text x="90" y="110" fill="#00CF00">325</text><text></text>
<text x="0" y="140">task 3.1: </text><text x="90" y="140" fill="#00CF00">218</text><text></text>
<text x="0" y="170">task 3.2: </text><text x="90" y="170" fill="#00CF00">3847183340</text><text></text>
<text x="0" y="200">task 4.1: </text><text x="90" y="200" fill="#00CF00">219</text><text></text>
<text x="0" y="230">task 4.2: </text><text x="90" y="230" fill="#00CF00">127</text><text></text>
<text x="0" y="260">task 5.1: </text><text x="90" y="260" fill="#00CF00">928</text><text></text>
<text x="0" y="290">task 5.2: </text><text x="90" y="290" fill="#00CF00">610</text><text></text>
<text x="0" y="320">task 6.1: </text><text x="90" y="320" fill="#00CF00">6549</text><text></text>
<text x="0" y="350">task 6.2: </text><text x="90" y="350" fill="#00CF00">3466</text><text></text>
<text x="0" y="380">task 7.1: </text><text x="90" y="380" fill="#00CF00">222</text><text></text>
<text x="0" y="410">task 7.2: </text><text x="90" y="410" fill="#00CF00">13264</text><text></text>
<text x="0" y="440">task 8.1: </text><text x="90" y="440" fill="#00CF00">1753</text><text></text>
<text x="0" y="470">task 8.2: </text><text x="90" y="470" fill="#00CF00">733</text><text></text>
<text x="0" y="500">task 9.1: </text><text x="90" y="500" fill="#00CF00">556543474</text><text></text>
<text x="0" y="530">task 9.2: </text><text x="90" y="530" fill="#00CF00">76096372</text><text></text>
<text x="0" y="560">task 10.1: </text><text x="90" y="560" fill="#00CF00">1820</text><text></text>
<text x="0" y="590">task 10.2: </text><text x="90" y="590" fill="#00CF00">3454189699072</text><text></text>
<text x="0" y="620">task 11.1: </text><text x="90" y="620" fill="#00CF00">2494</text><text></text>
<text x="0" y="650">task 11.2: </text><text x="90" y="650" fill="#00CF00">2306</text><text></text>
<text x="0" y="680">task 12.1: </text><text x="90" y="680" fill="#00CF00">582</text><text></text>
<text x="0" y="710">task 12.2: </text><text x="90" y="710" fill="#00CF00">52069</text><text></text>
<text x="0" y="740">task 13.1: </text><text x="90" y="740" fill="#00CF00">174</text><text></text>
<text x="0" y="770">task 13.2: </text><text x="90" y="770" fill="#00CF00">780601154795940</text><text></text>
<text x="0" y="800">task 14.1: </text><text x="90" y="800" fill="#00CF00">8570568288597</text><text></text>
<text x="0" y="830">task 14.2: </text><text x="90" y="830" fill="#00CF00">3289441921203</text><text></text>
<text x="0" y="860">task 15.1: </text><text x="90" y="860" fill="#00CF00">929</text><text></text>
<text x="0" y="890">task 15.2: </text><text x="90" y="890" fill="#00CF00">16671510</text><text></text>
<text x="0" y="920">task 16.1: </text><text x="90" y="920" fill="#00CF00">29019</text><text></text>
<text x="0" y="950">task 16.2: </text><text x="90" y="950" fill="#00CF00">517827547723</text><text></text>
<text x="0" y="980">task 17.1: </text><text x="90" y="980" fill="#00CF00">380</text><text></text>
<text x="0" y="1010">task 17.2: </text><text x="90" y="1010" fill="#00CF00">2332</text><text></text></svg>